<svg width="40" height="41" viewBox="0 0 40 41" fill="none" xmlns="http://www.w3.org/2000/svg">
<mask id="mask0_128_451" style="mask-type:alpha" maskUnits="userSpaceOnUse" x="0" y="0" width="40" height="41">
<path fill-rule="evenodd" clip-rule="evenodd" d="M2.47073 7.68139C0.950477 5.53232 0.369025 4.05757 0.12878 1.74171L6.13401e-09 0.5L0.64448 0.617294C5.51261 1.5044 15.1364 1.68131 19.7696 0.968784C21.2675 0.738484 22.9907 0.549491 23.5989 0.548906C27.2384 0.545594 31.0798 2.40475 34.687 5.91595C37.3634 8.52077 38.7595 10.7076 39.5764 13.5741C39.9773 14.9815 40.0007 15.4518 40 22.1108C39.9995 25.987 39.9532 29.2048 39.8966 29.2611C39.7225 29.4355 38.2745 28.9873 37.8277 28.6209C37.5952 28.4307 37.233 27.9914 37.0225 27.6448C36.6682 27.0611 36.647 26.7466 36.735 23.377C36.878 17.8976 36.2134 14.4137 34.4614 11.459C33.2386 9.39734 31.7139 8.16421 29.3657 7.33868C28.3377 6.97725 27.7327 6.9073 25.7027 6.9153C23.6193 6.92366 22.9445 7.01193 20.9902 7.53118C19.7357 7.86455 18.3789 8.278 17.975 8.44984L17.2407 8.76257L18.9915 9.39695C23.6134 11.0722 26.4748 13.3832 27.4532 16.2315C27.9795 17.7641 27.9734 18.795 27.4368 18.9655C26.8352 19.1569 24.8545 18.0985 23.3684 16.7919C21.243 14.9236 19.8172 14.4583 14.5172 13.9036C12.9124 13.7356 11.0351 13.4646 10.3455 13.3013C7.6048 12.6523 4.33764 10.3207 2.47073 7.68139ZM20.2224 8.52407C19.8155 8.50459 20.8243 8.1385 22.1039 7.84116C23.8564 7.43414 27.2457 7.58436 28.6666 8.13207C32.0318 9.4295 34.3591 12.3005 35.4602 16.514C36.0409 18.7348 36.5155 27.2355 36.0673 27.3852C35.6375 27.5286 33.9216 26.6234 33.463 26.0111C33.0195 25.4191 33.002 25.285 33.0936 23.1493C33.2816 18.7508 33.1914 15.9173 32.8232 14.6738C31.567 10.4321 28.958 8.88004 22.6541 8.62441C21.4587 8.57609 20.3645 8.5307 20.2224 8.52407ZM0.00791191 18.6657C0.0260175 14.9875 0.0929886 11.8933 0.156455 11.7899C0.305389 11.5481 1.24668 11.8153 2.09005 12.3385C3.19273 13.0227 3.25911 13.3557 3.28405 18.3166C3.3037 22.2194 3.36407 23.0616 3.74116 24.703C4.96805 30.0445 7.25052 32.8245 11.2526 33.8523C13.0468 34.313 14.9195 34.3457 17.1071 33.9548C18.8046 33.6514 22.6556 32.4995 22.6556 32.295C22.6556 32.2252 22.1518 32.0114 21.5362 31.8195C20.0408 31.3536 17.4416 30.1291 16.3549 29.3784C13.9669 27.7289 12.4307 25.4591 12.2029 23.2441C12.1012 22.254 12.1238 22.1783 12.5564 22.0612C13.2283 21.8793 15.1031 22.8687 16.6204 24.2057C18.7411 26.0743 20.2285 26.5668 25.3811 27.1073C28.9536 27.4818 30.5198 27.8366 32.0873 28.6261C35.3809 30.285 38.5623 33.8757 39.472 36.9605C39.7684 37.9664 40.1189 40.5034 39.9607 40.5C39.9191 40.4991 38.9214 40.3714 37.7436 40.2159C33.5118 39.6582 28.2527 39.4541 24.5102 39.703C22.6042 39.8295 20.334 40.0593 19.4653 40.2139C14.1927 41.1502 9.81411 39.5727 5.29998 35.1102C2.4282 32.2709 1.05414 30.002 0.3379 26.9168C0.017062 25.5348 -0.0210959 24.577 0.00791191 18.6657ZM5.80382 27.7143C4.39743 24.8514 4.03202 22.9936 3.86341 17.849L3.71993 13.4724L4.28102 13.6093C5.28423 13.8542 6.19534 14.4272 6.66355 15.1084C7.11073 15.7587 7.11814 15.8371 6.95557 18.2188C6.49223 25.0095 7.01845 27.7093 9.25477 30.0136C10.2939 30.9239 10.8779 31.217 11.948 31.58C13.5742 32.0677 16.2655 32.4464 18.762 32.5386L20.0274 32.5852L18.8593 32.9545C17.3787 33.4227 14.1709 33.5907 12.6734 33.2786C9.71541 32.662 7.25559 30.6698 5.80382 27.7143Z" fill="white"/>
</mask>
<g mask="url(#mask0_128_451)">
<g filter="url(#filter0_f_128_451)">
<path d="M37.1816 42.0541C48.7796 42.0541 58.1816 32.5992 58.1816 20.9361C58.1816 9.27296 48.7796 -0.181885 37.1816 -0.181885C25.5837 -0.181885 16.1816 9.27296 16.1816 20.9361C16.1816 32.5992 25.5837 42.0541 37.1816 42.0541Z" fill="black"/>
</g>
<g filter="url(#filter1_f_128_451)">
<path d="M23.1818 15.6182C33.0125 15.6182 40.9818 7.60407 40.9818 -2.28183C40.9818 -12.1677 33.0125 -20.1818 23.1818 -20.1818C13.3512 -20.1818 5.38184 -12.1677 5.38184 -2.28183C5.38184 7.60407 13.3512 15.6182 23.1818 15.6182Z" fill="black"/>
</g>
<g filter="url(#filter2_f_128_451)">
<path d="M10.9816 32.2182C20.8123 32.2182 28.7816 24.2041 28.7816 14.3182C28.7816 4.43228 20.8123 -3.58182 10.9816 -3.58182C1.15097 -3.58182 -6.81836 4.43228 -6.81836 14.3182C-6.81836 24.2041 1.15097 32.2182 10.9816 32.2182Z" fill="black"/>
</g>
<g filter="url(#filter3_f_128_451)">
<path d="M20.9816 56.0181C30.8123 56.0181 38.7816 48.004 38.7816 38.1181C38.7816 28.2322 30.8123 20.2181 20.9816 20.2181C11.151 20.2181 3.18164 28.2322 3.18164 38.1181C3.18164 48.004 11.151 56.0181 20.9816 56.0181Z" fill="black"/>
</g>
</g>
<defs>
<filter id="filter0_f_128_451" x="-49.8858" y="-66.2493" width="174.135" height="174.371" filterUnits="userSpaceOnUse" color-interpolation-filters="sRGB">
<feFlood flood-opacity="0" result="BackgroundImageFix"/>
<feBlend mode="normal" in="SourceGraphic" in2="BackgroundImageFix" result="shape"/>
<feGaussianBlur stdDeviation="33.0337" result="effect1_foregroundBlur_128_451"/>
</filter>
<filter id="filter1_f_128_451" x="-50.6182" y="-76.1818" width="147.6" height="147.8" filterUnits="userSpaceOnUse" color-interpolation-filters="sRGB">
<feFlood flood-opacity="0" result="BackgroundImageFix"/>
<feBlend mode="normal" in="SourceGraphic" in2="BackgroundImageFix" result="shape"/>
<feGaussianBlur stdDeviation="28" result="effect1_foregroundBlur_128_451"/>
</filter>
<filter id="filter2_f_128_451" x="-62.8184" y="-59.5818" width="147.6" height="147.8" filterUnits="userSpaceOnUse" color-interpolation-filters="sRGB">
<feFlood flood-opacity="0" result="BackgroundImageFix"/>
<feBlend mode="normal" in="SourceGraphic" in2="BackgroundImageFix" result="shape"/>
<feGaussianBlur stdDeviation="28" result="effect1_foregroundBlur_128_451"/>
</filter>
<filter id="filter3_f_128_451" x="-52.8184" y="-35.7819" width="147.6" height="147.8" filterUnits="userSpaceOnUse" color-interpolation-filters="sRGB">
<feFlood flood-opacity="0" result="BackgroundImageFix"/>
<feBlend mode="normal" in="SourceGraphic" in2="BackgroundImageFix" result="shape"/>
<feGaussianBlur stdDeviation="28" result="effect1_foregroundBlur_128_451"/>
</filter>
</defs>
</svg>
