<svg width="340" height="108" viewBox="0 0 340 108" fill="none" xmlns="http://www.w3.org/2000/svg">
<path d="M156.61 103.577C168.103 103.577 179.57 103.215 190.989 102.645C212.595 101.498 234.031 99.2908 254.809 95.8425C265.241 94.179 275.392 92.1664 285.031 89.6309C294.622 87.0684 303.738 83.9761 311.33 80.0383C312.097 79.6357 312.853 79.2267 313.573 78.797L315.608 77.4626L315.473 77.5293C319.666 74.9869 323.224 72.1426 325.869 69.0773C328.525 66.0184 330.304 62.7243 331.193 59.33C332.876 52.5281 331.048 45.4644 326.575 38.9843C323.955 35.2344 320.421 31.6791 316.095 28.4592C311.781 25.246 306.59 22.3213 300.934 19.752C289.565 14.6002 276.111 10.8436 261.938 8.32801C247.741 5.79237 232.837 4.56467 217.775 4.22927C202.712 3.88715 187.54 4.41719 172.404 5.3295C162.935 5.86616 146.898 7.31509 146.764 5.79231C146.702 5.00076 149.286 4.12872 154.002 3.29691C158.706 2.46509 165.531 1.68028 173.915 1.15704C194.193 -0.0839677 214.923 -0.560319 235.421 0.915475C245.682 1.60642 255.797 2.89442 265.631 4.63854C270.517 5.56427 275.379 6.53685 280.072 7.74436C282.448 8.3011 284.727 8.97868 287.055 9.60254C288.2 9.93121 289.321 10.2935 290.455 10.6356C291.588 10.9777 292.721 11.3266 293.806 11.709C306.76 16.0223 318.337 21.8047 326.551 28.9959C334.716 36.1468 339.505 44.4717 339.968 52.9709C340.187 57.2171 339.286 61.5037 337.08 65.6089C334.887 69.721 331.34 73.6185 326.807 77.0663C322.273 80.5278 316.765 83.5603 310.733 86.1492C304.713 88.7457 298.205 90.9389 291.478 92.8376C279.401 96.2583 266.617 98.7006 253.786 100.726C240.929 102.766 227.852 104.376 214.654 105.556C188.258 107.918 161.363 108.561 134.687 107.515C122.159 107.019 109.668 106.173 97.2988 104.932C84.8564 103.678 72.5603 101.839 60.715 99.2304C54.7923 97.9356 48.9916 96.4194 43.398 94.6685C37.7922 92.9314 32.418 90.9257 27.4093 88.6381C22.3764 86.3638 17.7943 83.7478 13.8093 80.8499C9.83647 77.9452 6.58267 74.712 4.20631 71.2907C0.148217 65.3874 -1.04612 58.8003 0.940272 52.6086C2.79262 46.3834 7.43567 40.5472 13.6629 35.4155C19.9634 30.2971 27.8724 25.8162 36.9635 22.234C41.5091 20.443 46.335 18.8732 51.4045 17.5585C52.672 17.2365 53.9638 16.9278 55.2433 16.6259L59.1429 15.821C61.7143 15.2441 64.3953 14.8551 67.0398 14.3989C77.0815 12.7756 88.0614 12.0644 97.8472 11.3333L97.6765 11.3131C99.1876 11.3802 100.711 11.4204 102.271 11.4338C103.819 11.4607 105.391 11.4943 106.987 11.5211C110.167 11.5211 113.385 11.6352 116.615 11.6955C123.025 11.9437 129.435 12.3394 134.894 13.4731H134.906C135.893 13.5872 136.881 13.7012 137.867 13.8152L140.805 14.2178C142.767 14.4727 144.704 14.7276 146.606 14.9758C155.343 16.0491 160.668 17.1425 163.02 17.8872C165.372 18.6452 164.714 19.1282 161.424 19.4502C159.974 19.5911 161.12 20.3222 156.951 19.8526C156.94 19.8526 156.659 19.7722 156.659 19.7722L156.757 19.819C150.785 19.4501 144.412 18.6116 137.831 17.8603C131.263 17.1157 124.499 16.3174 117.979 15.9954C102.027 15.1435 85.8313 15.5393 70.5129 17.867L64.8461 18.8397C62.9572 19.1751 61.1415 19.6111 59.2892 19.9867C55.6089 20.7783 52.1113 21.7444 48.7113 22.8245C41.9234 25.0046 35.7083 27.7281 30.2245 30.8339C24.7405 33.9398 20.0487 37.4683 16.3684 41.2719C12.6759 45.0687 10.068 49.1807 8.89807 53.3934C7.71599 57.5992 7.97194 61.9127 9.84866 66.0184C11.7741 70.1305 15.0522 74.0545 19.6222 77.5092C25.167 81.7823 32.4058 85.3917 40.4367 88.3902C48.4798 91.3887 57.3027 93.7965 66.4548 95.7418C75.6191 97.6877 85.1245 99.17 94.7761 100.263L98.4078 100.652L102.076 100.995C104.526 101.216 106.963 101.464 109.412 101.658C114.323 102.021 119.234 102.41 124.17 102.652C134.968 103.235 145.826 103.409 156.818 103.564L156.61 103.577Z" fill="#2E85FF"/>
</svg>
