<svg width="288" height="288" viewBox="0 0 288 288" fill="none" xmlns="http://www.w3.org/2000/svg">
<mask id="mask0_127_436" style="mask-type:alpha" maskUnits="userSpaceOnUse" x="0" y="0" width="288" height="288">
<path fill-rule="evenodd" clip-rule="evenodd" d="M270.211 236.294C281.157 251.767 285.343 262.386 287.073 279.06L288 288L283.36 287.155C248.309 280.768 179.018 279.495 145.659 284.625C134.874 286.283 122.467 287.644 118.088 287.648C91.8835 287.672 64.2256 274.286 38.2533 249.005C18.9835 230.25 8.9313 214.505 3.0502 193.866C0.163666 183.734 -0.00488281 180.347 3.05176e-05 132.402C0.0032959 104.493 0.337128 81.3256 0.744568 80.9198C1.99802 79.6647 12.4233 82.8916 15.6404 85.5294C17.3144 86.8991 19.9228 90.0622 21.438 92.5576C23.9891 96.7598 24.1413 99.0246 23.508 123.285C22.4787 162.737 27.2635 187.821 39.8782 209.096C48.6818 223.939 59.6602 232.818 76.5671 238.761C83.9684 241.364 88.3244 241.867 102.94 241.81C117.941 241.75 122.799 241.114 136.87 237.375C145.903 234.975 155.672 231.998 158.58 230.761L163.867 228.51L151.262 223.942C117.983 211.88 97.3817 195.241 90.3371 174.733C86.5473 163.698 86.5915 156.276 90.4549 155.048C94.7864 153.671 109.047 161.291 119.747 170.698C135.051 184.15 145.316 187.5 183.476 191.494C195.031 192.703 208.547 194.655 213.512 195.83C233.245 200.503 256.769 217.291 270.211 236.294ZM142.398 230.227C145.329 230.367 138.065 233.003 128.852 235.144C116.234 238.074 91.8311 236.993 81.6006 233.049C57.3709 223.708 40.6146 203.037 32.6864 172.699C28.5055 156.709 25.0887 95.5047 28.3156 94.4264C31.41 93.3938 43.7646 99.9115 47.0667 104.32C50.2593 108.583 50.3853 109.548 49.7258 124.925C48.3726 156.594 49.0222 176.996 51.6731 185.949C60.7173 216.489 79.5027 227.664 124.891 229.504C133.497 229.852 141.376 230.179 142.398 230.227ZM287.943 157.207C287.813 183.69 287.33 205.968 286.874 206.713C285.801 208.454 279.024 206.53 272.952 202.762C265.012 197.837 264.534 195.439 264.355 159.721C264.213 131.621 263.779 125.556 261.064 113.739C252.23 75.2793 235.796 55.2633 206.981 47.8636C194.063 44.5467 180.58 44.3111 164.829 47.1256C152.607 49.3102 124.88 57.6033 124.88 59.076C124.88 59.5784 128.507 61.1182 132.939 62.4993C143.706 65.8538 162.42 74.6705 170.245 80.0755C187.438 91.9522 198.499 108.295 200.139 124.243C200.871 131.372 200.708 131.916 197.594 132.759C192.756 134.069 179.258 126.945 168.333 117.319C153.064 103.865 142.355 100.319 105.256 96.4276C79.5338 93.7309 68.2576 91.1765 56.9716 85.4918C33.2575 73.548 10.3517 47.6951 3.8013 25.4847C1.66748 18.2422 -0.855774 -0.0245361 0.283112 0C0.582581 0.00656128 7.7662 0.926178 16.2458 2.04547C46.7149 6.0611 84.5804 7.53055 111.526 5.73874C125.25 4.82727 141.595 3.17291 147.85 2.06018C185.812 -4.68164 217.338 6.67636 249.84 38.8064C270.517 59.2495 280.41 75.5853 285.567 97.7989C287.877 107.75 288.152 114.645 287.943 157.207ZM246.213 92.0569C256.338 112.67 258.969 126.046 260.183 163.087L261.216 194.599L257.177 193.613C249.954 191.85 243.394 187.724 240.022 182.819C236.803 178.137 236.749 177.573 237.92 160.424C241.256 111.531 237.467 92.0929 221.366 75.5018C213.884 68.9482 209.679 66.8373 201.974 64.224C190.266 60.7124 170.888 57.9862 152.914 57.3218L143.803 56.9864L152.213 54.3273C162.873 50.9564 185.969 49.7471 196.751 51.9938C218.049 56.4333 235.76 70.7776 246.213 92.0569Z" fill="white"/>
</mask>
<g mask="url(#mask0_127_436)">
<g filter="url(#filter0_f_127_436)">
<path d="M20.2907 -11.1892C-63.2147 -11.1892 -130.909 56.8856 -130.909 140.86C-130.909 224.835 -63.2147 292.91 20.2907 292.91C103.796 292.91 171.491 224.835 171.491 140.86C171.491 56.8856 103.796 -11.1892 20.2907 -11.1892Z" fill="#AEBFFF"/>
</g>
<g filter="url(#filter1_f_127_436)">
<path d="M121.09 179.149C50.3096 179.149 -7.06955 236.851 -7.06955 308.029C-7.06955 379.208 50.3096 436.909 121.09 436.909C191.871 436.909 249.25 379.208 249.25 308.029C249.25 236.851 191.871 179.149 121.09 179.149Z" fill="#CBD4FF"/>
</g>
<g filter="url(#filter2_f_127_436)">
<path d="M208.931 59.6292C138.15 59.6292 80.7708 117.331 80.7708 188.509C80.7708 259.688 138.15 317.389 208.931 317.389C279.712 317.389 337.091 259.688 337.091 188.509C337.091 117.331 279.712 59.6292 208.931 59.6292Z" fill="#6998FF"/>
</g>
<g filter="url(#filter3_f_127_436)">
<path d="M136.931 -111.731C66.15 -111.731 8.77078 -54.0292 8.77078 17.1493C8.77078 88.3278 66.15 146.029 136.931 146.029C207.712 146.029 265.091 88.3278 265.091 17.1493C265.091 -54.0292 207.712 -111.731 136.931 -111.731Z" fill="#AEBFFF"/>
</g>
</g>
<defs>
<filter id="filter0_f_127_436" x="-196.977" y="-77.2569" width="434.535" height="436.234" filterUnits="userSpaceOnUse" color-interpolation-filters="sRGB">
<feFlood flood-opacity="0" result="BackgroundImageFix"/>
<feBlend mode="normal" in="SourceGraphic" in2="BackgroundImageFix" result="shape"/>
<feGaussianBlur stdDeviation="33.0337" result="effect1_foregroundBlur_127_436"/>
</filter>
<filter id="filter1_f_127_436" x="-63.0693" y="123.149" width="368.32" height="369.76" filterUnits="userSpaceOnUse" color-interpolation-filters="sRGB">
<feFlood flood-opacity="0" result="BackgroundImageFix"/>
<feBlend mode="normal" in="SourceGraphic" in2="BackgroundImageFix" result="shape"/>
<feGaussianBlur stdDeviation="28" result="effect1_foregroundBlur_127_436"/>
</filter>
<filter id="filter2_f_127_436" x="24.771" y="3.62939" width="368.32" height="369.76" filterUnits="userSpaceOnUse" color-interpolation-filters="sRGB">
<feFlood flood-opacity="0" result="BackgroundImageFix"/>
<feBlend mode="normal" in="SourceGraphic" in2="BackgroundImageFix" result="shape"/>
<feGaussianBlur stdDeviation="28" result="effect1_foregroundBlur_127_436"/>
</filter>
<filter id="filter3_f_127_436" x="-47.229" y="-167.731" width="368.32" height="369.76" filterUnits="userSpaceOnUse" color-interpolation-filters="sRGB">
<feFlood flood-opacity="0" result="BackgroundImageFix"/>
<feBlend mode="normal" in="SourceGraphic" in2="BackgroundImageFix" result="shape"/>
<feGaussianBlur stdDeviation="28" result="effect1_foregroundBlur_127_436"/>
</filter>
</defs>
</svg>
