<svg width="1728" height="902" viewBox="0 0 1728 902" fill="none" xmlns="http://www.w3.org/2000/svg">
<path opacity="0.21" d="M2065.46 463.403C2005.76 482.886 1958.25 500.418 1930.4 516.057C1926.75 531.673 1946.96 545.383 1987.08 557.222C2041.03 569.083 2098.97 579.129 2151.43 587.484C2190.85 596.019 2210.14 603.111 2206.32 609.008C2134.93 622.933 2013.81 635.764 1905.58 652.428C1861.3 680.052 1894.63 720.134 1977.48 777.671C2063.98 850.665 2102.23 938.723 2070.72 1034.24C1979.06 1120.61 1860.57 1187.69 1756.83 1220.39C1698.14 1215.26 1695.56 1175.86 1736.19 1119.88C1799.21 1081.02 1850.88 1081.48 1869.2 1138.74C1846.35 1243.16 1782.36 1363.82 1691.6 1454.4C1588.37 1477.96 1491.87 1429.22 1414.06 1341.29C1359.71 1279.92 1330.41 1292.52 1320.34 1389.71C1332.46 1567.95 1355.46 1464.58 1342.49 1389.07C1323.97 1475.49 1295.94 1613.63 1260.99 1697.34C1242.08 1694.5 1222.09 1660.58 1201.35 1603.5C1180.05 1537.81 1158.33 1478.63 1136.47 1440.83C1114.36 1434.95 1092.36 1462.67 1070.59 1518.2C1048.77 1588.52 1027.32 1656.43 1006.31 1704.88C985.296 1721.67 964.99 1702.29 945.329 1652.07C925.595 1583.62 906.396 1513.53 887.587 1458.4C868.533 1430.97 849.626 1436.68 830.634 1472.92C811.095 1530.98 791.118 1595.67 770.411 1651.39C726.14 1690.27 676.337 1609.52 618.631 1472.31C554.651 1379.88 481.515 1393.24 400.184 1487.07C317.929 1583.7 235.369 1601.42 160.045 1523.05C82.3006 1338.18 83.1153 1336.26 143.217 1438.04C173.87 1440.05 180.168 1372.43 147.947 1262.36C74.5676 1146.6 -29.525 1064.03 -142.141 1030.76C-232.385 1045.74 -276.594 1088.08 -261.639 1132.01C-201.647 1162.27 -123.866 1160.46 -69.6738 1126.12C-75.656 1064.09 -148.135 984.567 -265.433 899.892C-379.082 813.897 -439.755 737.599 -419.182 673.366C-334.653 618.389 -233.601 574.123 -178.423 536.803C-182.715 520.195 -209.137 504.32 -254.721 488.76C-313.351 473.933 -376.456 458.904 -434.551 443.344C-478.834 428.089 -502.191 412 -500.635 394.873C-474.895 377.825 -428.435 359.605 -368.747 340.122C-306.53 320.638 -251.912 300.14 -213.636 278.718C-197.865 257.374 -206.365 235.253 -237.005 212.556C-285.13 190.175 -341.803 167.547 -397.673 145.008C-444.619 123.213 -474.274 102.016 -482.068 81.9016C-431.025 45.7426 -317.059 17.837 -199.604 2.13094C-134.919 -4.31836 -147.88 2.77364 -220.518 21.2534C-311.393 38.4252 -365.963 52.113 -354.533 50.185C-278.199 20.5656 -163.638 -39.6993 -51.8245 -130.001C23.4879 -233.979 44.1824 -334.304 16.6546 -405.032C-70.452 -412.981 -97.9555 -265.244 8.20412 -303.737C108.321 -410.478 208.291 -535.923 294.401 -622.098C381.033 -593.009 420.757 -442.848 409.583 -592.761C399.126 -734.521 430.678 -537.164 472.383 -559.962C488.92 -623.203 506.805 -694.517 525.725 -758.289C545.203 -800.254 565.387 -810.774 586.021 -787.209C606.91 -735.942 628.018 -668.777 649.174 -602.277C670.392 -553.986 691.548 -535.574 712.547 -552.351C733.557 -600.777 754.167 -667.694 774.436 -736.066C794.778 -789.667 814.888 -814.495 834.914 -804.764C855.183 -763.137 875.622 -699.163 896.438 -627.77C917.802 -564.957 939.882 -524.412 962.96 -514.05C1011.84 -582.692 1066.94 -702.23 1130.08 -766.677C1198.33 -720.495 1274.65 -592.58 1357.07 -472.919C1437.69 -437.549 1515.4 -497.374 1582.41 -595.072C1630.95 -657.524 1656.64 -632.392 1655.4 -530.466C1615.32 -355.907 1539.37 -367.971 1591.55 -457.348C1677.31 -463.572 1786.79 -410.534 1894.99 -315.948C1972.14 -204.235 1998.23 -106.831 1966.67 -41.6498C1861.68 -16.7885 1856.3 -84.337 2022.37 -100.923C2125.82 -90.9667 2166.13 -61.8547 2125.17 -18.8067C2031.44 35.1892 1937.53 94.5296 1902.67 154.084C1918.58 184.921 1955.36 214.89 2008.46 243.709C2070.48 272.72 2132.33 300.343 2184.6 326.423C2219.41 352.524 2231.06 377.036 2217.42 399.879C2181.25 422.722 2127.71 443.908 2065.5 463.391C2065.47 463.399 2065.46 463.403 2065.46 463.403Z" stroke="url(#paint0_linear_34_110)" stroke-linecap="round"/>
<path opacity="0.79" d="M1978.52 322.747C1877.27 358.917 1838.66 397.737 1880.11 439.77C1978.47 482.841 2076.6 530.962 2122.11 585.454C2092.4 642.483 1998.57 706.728 1883.65 777.242C1796.03 846.73 1768.93 916.511 1804.82 980.147C1921.8 1044.99 1952.36 1037.99 1815 981.455C1707.57 954.192 1624.72 951.339 1582.51 987.014C1584.88 1062.2 1620.1 1165.44 1668.76 1272.02C1715.91 1348.99 1740.62 1374.32 1734.78 1340.16C1698.47 1270.7 1635.02 1201.76 1554.93 1178.28C1465.55 1226.52 1379.03 1333.76 1302.41 1454.46C1237.28 1528.38 1187.35 1519.33 1150.58 1436.05C1125.71 1340.5 1108.44 1299.8 1094.46 1353.3C1079.83 1531.05 1034.66 1480.45 998.087 1353.02C971.508 1395.59 938.751 1518.24 899.733 1624.27C860.727 1626.79 816.384 1523.46 766.97 1398.54C717.459 1348.42 662.804 1406.36 603.663 1520.48C545.228 1602.92 483.959 1586.84 422.301 1482.31C365.506 1356.82 313.49 1288.45 270.752 1310.31C240.829 1424.08 313.807 1159.51 297.003 1206.91C247.018 1279.57 168.751 1330.68 70.4577 1334.1C-29.3185 1284.91 -113.227 1195.34 -161.668 1091.68C-165.523 995.864 -126.091 929.297 -59.2902 897.343C2.65953 898.415 34.3943 920.277 13.7606 948.431C-61.6612 976.945 -171.14 991.242 -277.884 987.791C-342.374 969.086 -340.66 934.134 -275.063 888.323C-182.144 833.651 -106.953 775.855 -92.2896 719.119C-152.865 660.501 -262.466 606.324 -368.553 557.853C-417.723 509.382 -383.058 466.886 -281.811 430.705C-172.149 394.535 -113.227 365.535 -133.776 343.538C-273.008 313.919 -339.298 280.601 -185.609 265.03C-85.6387 245.22 -38.9483 215.916 -56.9436 171.944C-126.006 112.705 -207.009 37.2864 -261.201 -50.6135C-265.554 -138.164 -212.104 -217.709 -117.738 -274.535C-8.53886 -298.348 84.9877 -285.63 142.67 -241.578C156.275 -189.679 132.566 -149.777 88.4773 -147.984C38.4676 -198.812 4.76303 -295.067 -1.71768 -410.433C21.0317 -502.662 73.0232 -538.765 145.418 -504.737C231.272 -426.826 318.743 -350.247 399.722 -328.497C472.092 -387.804 530.418 -505.346 575.528 -620.959C608.807 -669.363 633.076 -624.556 652.409 -519.484C665.954 -435.362 679.839 -436.534 696.631 -532.913C712.109 -660.997 732.694 -729.605 759.188 -686.67C785.61 -568.925 818.232 -469.243 857.238 -471.735C896.244 -577.742 940.721 -696.739 990.281 -732.176C1039.78 -657.006 1094.07 -527.569 1152.15 -439.274C1208.93 -452.082 1267.32 -547.424 1324.55 -648.448C1376 -681.551 1421.02 -617.329 1455.35 -495.266C1481.66 -366.178 1447.58 -513.08 1409.2 -559.759C1396.94 -498.626 1403 -389.416 1436.04 -277.23C1498.35 -200.346 1585.62 -180.513 1686.76 -210.053C1818.18 -296.014 1850.2 -301.809 1756.57 -190.457C1702.83 -94.3267 1687.16 -4.34093 1726.3 68.473C1815.28 120.868 1928.07 150.882 2025.75 164.299C2072.34 163.352 2051.07 157.816 1973.12 153.971C1881.2 149.078 1820.29 151.852 1826.85 163.048C1904.88 176.769 2019.46 198.068 2114.87 225.466C2143.15 253.879 2088.21 286.565 1978.56 322.736C1978.53 322.743 1978.52 322.747 1978.52 322.747Z" stroke="url(#paint1_linear_34_110)" stroke-linecap="round"/>
<path opacity="0.58" d="M1891.59 568.722C1796.38 602.119 1752.07 638.514 1776.38 676.973C1857.35 714.485 1953.49 752.144 2020.25 787.559C2029.61 818.971 1974.3 844.317 1876.55 860.474C1736.73 847.665 1896.69 814.483 1861.12 872.595C1783.55 944.191 1686.29 1034.21 1591.43 1128.93C1494.88 1211.89 1592.25 1092.67 1595.59 1189.66C1570.99 1299.86 1527 1398.19 1469.33 1443.54C1401 1419.35 1329.07 1340.54 1258.45 1252.88C1188.56 1213.82 1124.92 1251.43 1068.22 1354.84C1015.68 1470.14 969.344 1533.41 927.736 1506.85C888.839 1411.35 852.375 1308.93 816.956 1271.67C782.278 1330.45 747.188 1447.77 711.173 1543.65C675.158 1550.33 639.083 1462.78 603.627 1343.06C568.913 1270.99 536.255 1290.51 507.243 1382.02C480.931 1484.18 460.553 1526.13 447.762 1480.79C438.971 1316.67 460.054 1255.01 474.791 1374.88C473.332 1421.86 459.921 1402.47 429.013 1323.67C378.286 1214.27 308.469 1115.26 223.515 1056.96C134.523 1051.48 50.5295 1089.2 -14.8613 1145.53C-50.7423 1198.53 -51.715 1222.04 -18.5697 1207.18C33.7502 1155.89 90.9093 1078.09 130.973 989.934C132.858 902.158 90.3743 829.197 7.48687 776.103C-95.3655 743.282 -190.424 728.579 -247.984 725.512C-251.182 732.751 -200.163 740.948 -116.109 745.39C-38.6684 749.426 -0.562349 745.695 -23.8102 734.081C-104.473 719.999 -211.216 699.241 -299.307 673.253C-330.738 646.339 -290.079 615.84 -194.874 582.455C-92.4596 549.059 -30.1693 513.565 -34.3885 475.433C-102.053 436.387 -197.646 393.058 -276.266 344.169C-304.718 292.8 -267.341 234.678 -179.189 170.061C-72.7013 105.038 14.4053 37.5343 55.4417 -27.5675C41.0334 -82.3753 -15.1531 -124.115 -86.295 -146.124C-146.859 -147.861 -169.948 -128.141 -146.64 -91.835C-81.5408 -55.1349 10.4658 -27.0376 107.98 -23.5085C193.142 -56.4202 250.532 -125.761 275.676 -222.535C269.39 -322.634 242.106 -402.044 206.541 -436.004C169.833 -417.153 146.305 -355.321 141.478 -280.691C155.133 -236.651 189.02 -249.606 238.494 -326.355C300.493 -439.004 368.826 -540.219 438.229 -581.813C508.921 -546.578 574.92 -456.266 634.827 -367.013C691.512 -340.505 741.984 -398.368 787.239 -513.419C830.039 -617.825 869.555 -647.208 907.078 -581.768C943.871 -468.645 980.043 -384.455 1016.06 -391.119C1052.06 -486.967 1087.05 -600.924 1120.41 -653.104C1153.03 -609.279 1182.62 -497.036 1207.74 -388.649C1230.4 -349.164 1246.65 -396.485 1255.3 -492.921C1260.72 -577.494 1258.68 -593.392 1250.4 -529.88C1243.39 -417.739 1235.92 -311.709 1233.05 -257.724C1242.7 -273.261 1266.2 -339.242 1308.03 -414.672C1368.36 -462.557 1445.49 -454.078 1533.71 -390.803C1620.81 -291.696 1697.54 -188.608 1751.04 -109.356C1773.09 -69.3301 1760.66 -70.9988 1718.02 -101.746C1637.06 -168.843 1626.66 -189.183 1748.32 -119.718C1851.58 -49.892 1937.13 26 1977.94 100.077C1963.32 171.572 1899.66 233.37 1813.49 285.111C1745.64 329.534 1725.45 366.065 1767.78 397.624C1860.29 425.18 1966.47 451.62 2041.29 479.142C2052.66 505.729 1994.04 535.326 1891.62 568.711C1891.6 568.718 1891.59 568.722 1891.59 568.722Z" stroke="url(#paint2_linear_34_110)" stroke-linecap="round"/>
<path opacity="0.59" d="M1804.65 459.772C1715.88 490.383 1667.58 514.884 1676.43 533.477C1738.36 552.125 1825.36 565.137 1902.69 573.322C1943.16 582.838 1929.01 589.795 1865.26 596.853C1771.95 609.876 1677.35 628.401 1607.77 656.532C1580.03 696.547 1596.25 749.911 1644.75 816.862C1709.65 890.962 1765.9 969.458 1795.94 1043.35C1792.1 1100.8 1751.31 1135.13 1682.25 1139.18C1596.21 1116.16 1508.74 1071.17 1432.6 1018.78C1375.4 982.244 1342.27 975.479 1331.4 1010.76C1340.73 1085.57 1361.49 1184.13 1385.79 1279.17C1411.47 1340.15 1428.94 1348.32 1435.14 1301.59C1431.77 1225.49 1415.53 1154.15 1388.5 1126.37C1352.95 1163.77 1310.6 1255.41 1264.59 1363.98C1214.71 1439.37 1164.74 1445.94 1116.55 1380.4C1067.44 1282.06 1021.59 1204.99 979.763 1196.86C937.864 1267.11 900.232 1377.16 867.22 1463.03C834.209 1473.19 806.608 1401.16 784.211 1290.81C761.742 1204.84 744.233 1188.98 731.101 1246.5C711.44 1382.89 673.82 1334.64 644.031 1181.11C613.853 1118.23 574.312 1116.75 523.475 1167.58C463.082 1244.6 392.998 1307.21 316.433 1327.29C241.267 1295.67 171.365 1219.64 114.814 1123.1C78.4463 1030.44 66.263 965.422 80.1972 937.742C113.063 947.596 159.34 982.74 206.395 1026.4C236.476 1067.57 240.513 1089.6 209.994 1087.07C145.576 1060.63 57.3384 1012.48 -36.9906 950.516C-114.941 878.909 -158.069 807.098 -154.519 740.497C-109.142 678.642 -36.0057 626.473 38.6501 583.312C83.7719 546.792 82.1669 516.553 28.9473 489.932C-61.1017 466.627 -157.826 443.637 -226.281 419.114C-241.662 395.347 -196.71 368.489 -107.938 337.878C-13.0618 307.266 50.8698 273.644 60.7672 237.778C13.6757 202.679 -68.081 166.926 -151.26 132.504C-206.389 101.396 -210.085 74.9223 -161.145 55.9127C-75.0116 43.5327 22.3085 41.3228 102.995 50.1399C146.816 63.6811 146.354 83.7732 108.844 105.128C47.6234 116.843 -13.0253 116.2 -53.7456 95.4654C-64.2631 50.8277 -37.5864 -16.7434 20.6914 -101.712C101.025 -189.161 188.898 -266.349 270.715 -316.331C337.784 -328.779 382.626 -301.978 404.914 -245.457C405.655 -185.068 391.843 -143.114 371.014 -143.35C345.444 -195.283 325.066 -287.558 313.855 -391.874C310.39 -470.021 319.278 -493.507 339.207 -453.075C367.634 -372.628 403.941 -291.267 445.135 -254.612C490.78 -288.899 537.726 -382.042 583.881 -490.981C631.386 -560.334 676.301 -553.512 717.641 -473.618C759.188 -369.324 796.674 -300.366 829.686 -310.502C862.697 -396.35 890.444 -503.305 913.206 -567.516C936.149 -553.354 954.594 -467.292 969.343 -357.147C985.454 -279.767 999.655 -271.716 1013.89 -329.816C1032.58 -421.099 1054.91 -492.819 1083.69 -507.792C1120.95 -457.596 1167.84 -361.319 1225.51 -257.916C1290.91 -183.873 1363.91 -162.371 1440.34 -191.472C1512.06 -254.635 1575 -319.116 1621.5 -357.79C1646.45 -356.933 1646.95 -311.957 1623.14 -235.309C1584.6 -142.798 1537.92 -55.7775 1496.57 11.0382C1477.23 50.7826 1487.3 62.0124 1532.19 51.7409C1607.29 25.0192 1699.91 -4.67918 1790.59 -28.5033C1857.55 -45.2015 1884.92 -46.8477 1865.31 -33.8025C1808.82 -8.89604 1732.98 26.9359 1665.47 69.4539C1635.14 117.925 1654.6 167.682 1722.46 215.882C1818.36 265.425 1909.85 311.167 1963.48 352.141C1960.14 393.159 1899.55 429.149 1804.69 459.761C1804.66 459.768 1804.65 459.772 1804.65 459.772Z" stroke="url(#paint3_linear_34_110)" stroke-linecap="round"/>
<path opacity="0.93" d="M1717.71 324.359C1635.74 352.186 1585.13 382.132 1580.67 414.503C1623.26 447.482 1695.71 484.002 1773.19 524.885C1833.34 567.493 1854.9 615.457 1831.79 668.788C1770.39 723.032 1685.78 780.771 1598.97 839.3C1528.8 892.597 1489.26 939.906 1484.53 976.065C1512.52 997.589 1560.56 1001.96 1613.68 987.757C1660.89 961.419 1687.35 925.249 1687.18 888.312C1660.4 865.029 1609.36 861.917 1542.05 887.421C1465.39 942.59 1389.46 1021.47 1321.47 1110.85C1264.79 1190.26 1223.44 1242.91 1196.82 1254.46C1184.4 1224.85 1182.33 1163.83 1186.42 1094.22C1196.74 1047.22 1206.77 1042.54 1213.68 1089.65C1220.05 1176.61 1220.49 1274.93 1214.67 1348.11C1206.31 1368.09 1192.11 1327.1 1173.02 1243.22C1152.19 1158.22 1127.88 1111.21 1101.05 1128.32C1073.73 1205.2 1044.85 1306.33 1014.84 1382.42C984.833 1395.34 954.4 1338.17 923.273 1240.52C891.647 1148.83 858.368 1104.53 822.597 1123.95C785.099 1196 743.71 1282.94 697.627 1344.13C648.992 1353.79 595.261 1304.79 536.886 1216.4C477.976 1119.37 417.23 1046.8 357.627 1018.62C304.274 1039.13 258.52 1093.53 224.694 1157.47C205.045 1209.84 201.75 1228.72 215.477 1207.97C240.537 1151.65 275.263 1072.25 312.591 987.07C340.568 909.43 354.15 852.886 345.505 821.778C310.244 816.355 250.361 830.539 171.9 855.378C87.5288 886.756 10.4169 913.072 -44.3348 929.037C-66.3546 935.272 -51.2775 927.211 -3.10386 906.758C61.7032 876.315 126.766 837.958 171.243 795.35C177.408 748.378 141.527 701.463 69.8011 656.757C-19.2631 611.206 -100.533 569.432 -149.072 532.135C-150.543 494.848 -102.977 462.151 -21.0018 434.324C98.0098 395.346 92.3559 344.553 -17.1718 331.801C-86.2102 324.032 -122.383 319.398 -115.173 315.88C-66.7802 307.999 11.341 296.95 99.4932 279.169C178.259 251.41 231.053 212.443 250.264 160.522C234.956 98.8703 194.783 28.1986 143.46 -46.0585C74.1904 -141.592 79.054 -203.345 158.768 -153.024C231.6 -104.316 307.97 -59.6336 380 -36.1703C443.749 -48.2684 493.819 -98.1265 529.518 -179.453C554.736 -341.937 535.622 -185.778 538.139 -195.689C543.525 -272.562 554.711 -372.797 571.089 -455.589C588.975 -485.761 610.922 -449.67 636.115 -363.506C661.759 -271.344 689.773 -216.988 719.781 -229.886C749.789 -305.936 781.086 -404.265 813.879 -475.647C847.146 -487.283 882.796 -432.092 921.498 -336.367C961.719 -241.736 1006.11 -187.447 1055.16 -191.709C1106.06 -249.178 1161.44 -329.377 1220.38 -395.956C1278.45 -422.666 1336.65 -395.324 1391.73 -323.514C1439.04 -229.074 1476.99 -141.095 1501.66 -82.5106C1512.21 -65.0682 1506.82 -86.7387 1486.01 -133.293C1439.33 -211.88 1366.59 -221.024 1386.52 -137.262C1433.52 -60.5131 1502.49 17.0589 1585.23 86.2874C1667.79 143.373 1737.05 183.365 1779.13 207.527C1786.7 217.066 1758.36 216.773 1701.6 211.711C1606.14 197.245 1580.33 188.27 1686.18 199.939C1775.47 211.541 1847.98 228.42 1881.19 249.64C1865.69 271.468 1804.8 296.521 1717.75 324.348C1717.73 324.355 1717.71 324.359 1717.71 324.359Z" stroke="url(#paint4_linear_34_110)" stroke-linecap="round"/>
<path opacity="0.71" d="M1630.78 570.729C1555.93 595.771 1504.69 622.989 1489.37 651.797C1513.63 680.086 1568.12 708.904 1636.95 736.889C1727.05 774.029 1716.68 819.264 1617.93 819.58C1538.44 812.037 1466.64 796.951 1413.67 776.272C1385.87 748.75 1467.51 745.683 1529.72 796.229C1561.03 853.394 1575 924.234 1569.65 1000.94C1546.13 1070.97 1505.73 1125.12 1453.24 1152.83C1391.85 1150.08 1327.58 1117.59 1264.93 1063.66C1204.98 1006.99 1152.08 962.536 1107.13 947.461C1069.34 972.108 1039.26 1033.62 1015.33 1118.9C989.758 1235.21 953.379 1220.41 934.824 1105.6C922.702 1045.37 907.479 1028.7 888.572 1065.53C869.823 1144.34 847.061 1235.26 820.056 1301.8C793.039 1316.75 762.435 1273.49 728.585 1190.8C694.868 1101.06 658.257 1037.77 619.458 1022.07C581.547 1057.73 542.565 1127.2 503.9 1202.42C468.055 1257.69 434.813 1270.72 406.215 1237.37C383.332 1167.26 367.78 1080.35 361.227 1000.07C361.835 944.755 371.683 925.475 389.995 940.91C411.03 984.071 435.104 1037.66 457.854 1085.37C471.703 1117.08 474.998 1121.76 463.131 1098.65C433.086 1051.24 385.411 987.002 322.209 915.913C250.179 844.306 175.949 781.696 109.209 732.334C47.0521 687.087 91.4565 674.595 176.046 687.234C246.215 702.669 210.857 708.589 103.883 696.299C24.631 684.697 -37.8051 668.641 -67.3999 649.012C-57.4174 628.852 -8.91544 606.076 65.9228 581.035C144.907 555.982 207.27 529.271 237.485 500.644C228.172 471.498 184.643 439.488 120.273 403.859C50.2256 366.663 -5.01242 324.799 -31.9931 277.974C-25.4881 229.694 14.8917 177.299 80.2946 122.424C158.55 70.1756 235.102 20.2612 297.465 -23.1927C343.888 -65.6656 288.225 -55.5632 225.995 -7.12581C177.919 43.0479 190.807 44.8971 251.432 -34.3324C307.594 -111.611 369.385 -193.084 432.04 -262.335C494.245 -303.861 551.149 -308.845 601.147 -275.888C645.028 -217.957 681.298 -151.446 711.051 -99.6823C735.102 -84.6865 754.86 -114.002 772.138 -183.399C793.258 -313.468 837.589 -365.547 865.47 -252.819C884.9 -175.078 907.977 -134.342 934.982 -149.27C961.987 -215.792 992.287 -304.166 1025.47 -378.039C1058.42 -409.936 1093.79 -385.898 1130.73 -316.016C1166.54 -225.466 1202.61 -145.673 1237.47 -101.757C1269.2 -105.658 1297.42 -151.017 1320.17 -218.137C1341.91 -305.609 1334.49 -256.709 1306.98 -139.607C1285.95 -59.5996 1264.37 0.777985 1246.83 33.0921C1240.37 34.9638 1246.41 12.0755 1268.72 -25.132C1308.64 -69.003 1364.74 -105.455 1433.5 -126.787C1507.04 -131.038 1578.29 -114.689 1637.56 -80.8305C1676.32 -32.5284 1689.09 24.5118 1673.47 84.585C1635.2 146.395 1580.66 203.807 1522.21 254.747C1476.59 300.772 1453.77 339.366 1462.5 371.658C1504.7 399.327 1572.85 422.97 1653.32 444.438C1728.11 463.673 1779.59 482.931 1794.27 503.418C1769.4 523.386 1709.8 545.676 1630.81 570.718C1630.79 570.726 1630.78 570.729 1630.78 570.729Z" stroke="url(#paint5_linear_34_110)" stroke-linecap="round"/>
<path opacity="0.61" d="M1543.84 456.13C1451.29 487.306 1428.36 527.963 1499.89 538.223C1562.42 544.334 1618.56 547.559 1657.23 549.081C1672.71 553.106 1660.35 557.91 1622.7 565.689C1565.69 579.625 1497.77 599.977 1428.68 628.897C1366.42 666.443 1318.46 713.403 1288.52 768.978C1278.25 828.419 1285.5 890.139 1305.89 948.769C1336.85 997.217 1370.43 1031.63 1401.18 1046.82C1427.61 1042.01 1443.61 1017.19 1447.74 976.471C1440.99 931.022 1422.29 888.154 1393.67 859.29C1356.61 855.344 1313.61 879.473 1267.38 931.383C1217.98 1002.62 1168.91 1080.55 1121.74 1148.55C1074.94 1190.92 1031.48 1197.86 991.618 1167.02C953.147 1109.04 918.081 1038.87 886.067 977.937C855.013 947.686 826.257 957.665 799.386 1007.68C772.806 1084.14 747.552 1163.87 723.55 1221.18C699.536 1237.42 677.346 1206.75 657.163 1140.25C637.283 1058.9 619.956 987.126 605.73 944.913C592.477 943.018 583.066 978.704 577.984 1038.57C574.701 1132.73 590.13 1151.98 604.356 1063.62C611.165 986.856 615.907 915.598 615.956 861.793C607.578 832.399 590.544 829.333 562.943 848.173C524.472 884.107 475.508 925.666 417.607 963.539C355.402 993.316 291.847 1006.95 232.548 1002.88C183.803 982.334 149.831 946.762 135.082 900.715C140.031 846.572 164.738 790.084 205.58 735.141C253.255 681.754 301.623 634.207 341.03 593.178C361.08 557.064 357.81 527.084 328.786 501.952C276.564 480.586 208.96 461.948 137.162 444.528C52.8394 420.704 61.5208 367.779 152.859 335.713C223.551 313.456 282.85 289.069 318.938 263.012C324.677 237.361 301.149 210.854 255.03 184.583C194.819 160.015 135.265 137.408 88.3799 118.388C61.3506 103.132 61.1682 93.56 87.4558 91.102C135.861 93.5487 199.403 103.471 268.673 120.304C335.474 138.694 391.38 159.699 431.286 179.521C452.43 191.269 455.276 193.716 443.007 182.418C417.717 154.637 386.675 110.45 355.451 51.493C325.759 -15.5369 304.323 -84.8894 293.404 -147.116C292.273 -192.25 303.094 -213.977 324.433 -207.776C354.733 -177.153 392.268 -127.475 434.435 -70.5702C480.87 -23.8127 528.302 1.54474 574.932 -4.78054C622.084 -45.4495 666.622 -113.145 707.938 -193.253C748.367 -265.684 785.427 -312.013 819.278 -318.733C852.338 -285.122 882.747 -219.908 910.774 -142.967C938.545 -80.8642 964.419 -52.4287 988.42 -68.6534C1012.43 -125.942 1034 -203.423 1053 -275.482C1071.73 -321.112 1087.41 -324.562 1099.61 -285.72C1111.04 -216.209 1118.45 -135.401 1121.59 -64.8538C1123.82 -21.445 1121.93 -13.8682 1116.38 -39.9247C1111.36 -91.5981 1104.49 -151.389 1097.47 -202.781C1094.73 -234.836 1095.44 -237.395 1102.16 -210.267C1117.8 -158.233 1142.72 -90.5833 1178.2 -18.8405C1223.45 48.1443 1277.85 100.765 1339.01 134.748C1401.7 148.74 1462.7 144.895 1516.35 128.31C1556.96 101.52 1580.86 72.938 1584.72 47.806C1569.81 26.5414 1537.18 15.0635 1491.79 14.0713C1443.94 21.7044 1399.96 38.9664 1369.14 63.6136C1360.45 94.4169 1376.25 129.155 1416.82 165.506C1477.25 204.382 1548.25 242.39 1617.73 278.267C1673.11 314.674 1703.73 348.037 1702.75 377.848C1671.42 407.681 1614.57 433.862 1543.88 456.119C1543.85 456.126 1543.84 456.13 1543.84 456.13Z" stroke="url(#paint6_linear_34_110)" stroke-linecap="round"/>
<path opacity="0.76" d="M1456.9 326.05C1397.22 345.522 1349.4 366.55 1320.59 389.236C1315.28 412.225 1332.48 437.425 1368.07 465.24C1472.15 523.645 1557.99 596.211 1577.38 682.284C1522.17 766.768 1413.72 848.658 1297.57 907.344C1189.16 914.38 1233.91 767.298 1284.55 810.548C1298.94 927.211 1286.35 1053.75 1253.04 1112.75C1205.94 1068.73 1150.5 954.88 1095.26 868.829C1066.59 867.408 1039.23 897.4 1013.76 953.73C988.129 1024.14 964.662 1092.12 943.664 1140.57C922.653 1157.36 904.597 1137.69 889.313 1087.51C867.403 984.138 815.497 898.099 779.287 1042.31C739.795 1096.84 683.195 1050.32 604.065 935.227C510.332 810.627 406.689 735.615 313.223 724.858C253.778 767.602 243.358 823.424 288.334 860.136C360.728 871.242 431.505 845.208 455.921 794.91C405.741 727.576 295.994 657.186 175.694 593.922C131.994 561.811 108.613 532.529 109.768 506.417C134.414 480.315 180.107 457.415 239.795 437.944C302.013 418.46 356.886 402.856 395.94 391.017C413.158 379.178 407.479 371.083 381.277 366.46C285.088 356.256 190.43 355.771 151.838 355.591C186.746 338.385 283.957 300.264 401.266 229.13C502.1 132.38 558.518 20.6332 569.534 -73.1636C541.884 -113.494 501.687 -84.6753 469.611 -0.654037C447.227 73.885 450.072 85.4757 474.414 2.4015C512.484 -132.515 561.411 -230.371 612.686 -213.537C639.545 -164.254 665.601 -99.6598 690.272 -35.3134C715.112 11.0156 738.19 28.7286 759.201 11.9514C780.199 -36.4634 798.644 -102.467 814.718 -169.024C830.963 -221.52 845.225 -245.784 857.98 -236.865C885.933 -135.796 913.425 0.22542 948.163 72.8139C996.628 42.3826 1062.97 -49.2042 1150.1 -125.299C1246.92 -138.265 1347.43 -71.5625 1430.15 38.4477C1474.21 154.242 1467.62 236.437 1410.54 276.316C1336.97 277.681 1277.43 259.945 1273.3 242.976C1342.67 224.406 1461.23 222.704 1573.64 237.778C1607.96 246.697 1619.83 258.874 1606.78 273.836C1571.89 289.091 1519.16 306.556 1456.94 326.039C1456.92 326.047 1456.9 326.05 1456.9 326.05Z" stroke="url(#paint7_linear_34_110)" stroke-linecap="round"/>
<path opacity="0.28" d="M1369.97 572.646C1274.76 606.042 1228.73 644.637 1246.93 684.753C1319.51 721.036 1405.85 751.208 1467.23 767.264C1484.07 770.387 1445.05 752.606 1365.86 715.557C1266.54 679.691 1172.45 650.736 1100.33 650.962C1055.92 696.242 1038.86 784.21 1039.44 895.145C1055.45 987.385 1071.43 1025.38 1079.66 987.149C1087.04 899.779 1082 811.067 1065.07 783.612C1046.37 846.222 1018.42 964.069 982.402 1059.95C946.387 1066.64 904.026 978.771 854.818 859.166C803.824 781.448 743.37 785.89 673.589 855.739C602.934 947.821 527.658 1000.8 456.151 988.614C400.062 917.165 365.421 814.066 362.649 715.557C387.563 641.604 438.971 605.715 500.787 600.067C542.48 618.952 549.216 642.754 505.979 658.979C418.191 673.196 311.363 672.159 224.901 657.456C192.789 639.676 231.527 612.909 326.732 579.524C429.159 546.127 492.92 507.691 494.245 462.5C435.153 414.232 350.673 354.531 280.09 282.439C246.702 208.351 268.612 129.561 335.656 59.205C430.156 13.3721 527.622 1.30785 608.758 31.4797C680.775 117.982 690.746 122.413 677.614 -35.5952C669.334 -129.933 672.325 -153.396 687.22 -88.5877C703.428 18.1076 729.897 99.2312 765.912 92.5677C801.915 -3.26981 845.76 -114.362 897.46 -164.108C950.485 -123.8 1012.99 -16.0782 1083.67 95.7585C1153.21 158.493 1224.52 150.442 1288.32 92.9736C1334.37 16.7997 1356.46 -31.57 1346.46 -33.0809C1312.53 10.4406 1257.75 87.3361 1200.75 174.661C1171.19 263.181 1181.57 335.95 1241.34 390.701C1338.31 432.52 1443.29 463.087 1516.28 489.786C1528.87 512.64 1472.42 539.249 1370 572.635C1369.98 572.642 1369.97 572.646 1369.97 572.646Z" stroke="url(#paint8_linear_34_110)" stroke-linecap="round"/>
<path opacity="0.49" d="M1283.03 452.488C1175.16 488.681 1207.7 510.115 1304.98 504.432C1360.74 506.586 1385.59 514.749 1375.51 537.547C1334.89 579.941 1270.65 643.746 1196.07 725.738C1117.8 809.996 1047.22 884.152 989.029 926.76C941.755 926.23 906.725 880.408 880.085 804.234C860.485 735.017 842.842 700.121 823.29 723.393C805.368 801.844 782.133 903.252 752.124 979.335C722.116 992.256 686.758 934.675 648.08 837.8C611.044 744.578 574.093 692.556 541.677 695.092C516.326 746.36 501.93 816.141 502.963 874.027C514.904 904.853 542.395 893.893 581.34 848.196C616.589 777.592 645.235 698.407 654.622 624.511C633.453 557.921 581.693 506.913 503.924 469.491C415.772 441.822 336.447 420.636 288.966 400.556C285.975 383.057 331.693 361.454 413.668 333.627C500.726 305.8 565.679 273.058 590.69 238.083C569.898 205.69 516.74 176.239 451.847 155.696C389.776 144.884 353.348 150.07 350.053 173.77C377.593 204.788 432.211 244.014 501.675 278.154C579.127 287.377 652.749 265.346 716.316 205.554C770.983 118.692 813.454 23.9593 846.563 -47.6933C872.644 -70.6379 895.125 -34.479 917.814 47.9863C938.667 134.127 963.361 186.083 993.37 173.184C1023.38 97.1228 1057.28 1.35294 1093.01 -66.376C1126.92 -78.9251 1159.04 -28.1988 1184.97 61.4036C1203.87 157.974 1210.81 228.77 1202.39 258.276C1185.08 244.634 1154.55 203.48 1116.43 155.685C1086.29 110.179 1067.25 86.3101 1070.94 86.8062C1105.47 106.887 1168.81 144.557 1252.87 190.626C1339.77 243.98 1410.01 295.709 1442.39 341.091C1428.98 387.037 1370.11 424.65 1283.07 452.477C1283.04 452.484 1283.03 452.488 1283.03 452.488Z" stroke="url(#paint9_linear_34_110)" stroke-linecap="round"/>
<path opacity="0.07" d="M1196.1 327.821C1128.67 350.078 1077.62 376.191 1051.73 406.644C1055.31 438.462 1082.87 476.888 1125.38 522.743C1177.46 571.023 1224.34 626.202 1257.91 684.956C1277.71 738.84 1277.45 786.51 1259.48 819.343C1227.38 832.106 1184.42 820.64 1136.37 784.255C1083.65 734.882 1032.21 678.981 985.041 632.832C938.29 615.243 897.071 632.178 861.883 684.844C827.266 761.514 797.817 841.408 773.803 898.719C749.802 914.955 732.378 883.757 721.715 817.866C711.635 737.081 709.179 663.793 714.322 615.096C719.891 599.379 731.794 614.578 747.516 650.195C758.568 699.253 767.055 744.139 767.7 775.247C754.203 792.588 725.995 789.769 681.201 770.5C622.631 738.603 554.225 698.453 484.542 656.092C424.441 610.158 383.21 567.505 370.37 530.805C386.991 493.924 433.183 463.831 500.604 441.574C571.309 419.306 631.24 405.923 669.285 400.826C679.025 395.538 662.975 397.703 628.31 405.055C579.698 408.832 531.537 412.327 492.884 409.914C464.918 394.873 455.702 365.739 464.395 319.218C487.509 258.931 523.293 187.65 566.263 115.411C615.348 56.6119 664.981 21.4452 711.647 20.8476C758.811 53.2294 800.942 113.844 837.066 186.038C872.826 243.337 902.98 270.025 926.982 253.789C950.996 196.478 967.726 121.094 977.247 53.0152C986.402 8.92996 987.934 4.67928 982.378 38.5719C977.32 101.047 967.216 176.916 955.13 249.46C949.172 309.025 947.846 346.887 956.187 363.303C978.949 359.639 1016.62 343.944 1069.58 324.371C1133.22 299.926 1202.92 281.402 1269.13 271.705C1336.25 265.459 1294.35 296.871 1196.13 327.809C1196.11 327.817 1196.1 327.821 1196.1 327.821Z" stroke="url(#paint10_linear_34_110)" stroke-linecap="round"/>
<path opacity="0.77" d="M1109.16 574.484C1022.77 667.739 1151.51 569.489 1117.56 534.458C1077.68 603.359 1034.41 722.231 998.391 818.103C962.388 824.789 937.049 736.291 914.519 619.358C881.86 532.022 834.075 506.496 761.571 525.922C671.766 575.814 570.615 614.691 489.929 626.428C457.464 629.946 492.336 611.319 587.541 577.923C689.967 544.537 756.659 499.539 768.697 438.158C728.074 368.546 669.455 277.557 623.567 183.895C589.328 120.71 587.601 110.811 609.621 173.68C641.757 266.124 680.933 341.091 716.936 334.405C752.951 238.534 782.387 133.192 812.663 88.7568C853.043 120.034 910.956 211.936 992.397 313.738C1085.47 404.829 1182.28 463.718 1249.31 498.885C1263.69 519.687 1211.61 541.087 1109.2 574.473C1109.17 574.48 1109.16 574.484 1109.16 574.484Z" stroke="url(#paint11_linear_34_110)" stroke-linecap="round"/>
<path opacity="0.73" d="M1022.22 448.847C954.814 471.115 902.202 475.647 872.145 465.624C872.522 449.951 930.788 452.579 945.646 524.378C950.777 599.977 941.779 680.176 917.778 737.487C893.776 753.723 857.019 721.442 810.293 658.133C763.116 580.302 707.063 507.612 649.661 452.68C600.806 413.815 564.062 391.04 551.721 375.841C564.184 366.866 607.068 353.866 674.477 331.609C745.181 309.352 806.39 279.924 847.487 250.316C864.983 226.943 864.096 214.98 853.919 224.666C833.066 250.418 816.713 299.498 811.63 361.014C806.073 408.008 814.451 431.258 838.465 415.022C862.466 357.711 899.831 286.543 946.983 227.248C993.674 186.601 1047.49 180.558 1099.81 202.296C1141.44 243.315 1167.8 293.657 1167.91 340.099C1144.42 388.706 1092.95 426.578 1022.26 448.835C1022.23 448.843 1022.22 448.847 1022.22 448.847Z" stroke="url(#paint12_linear_34_110)" stroke-linecap="round"/>
<defs>
<linearGradient id="paint0_linear_34_110" x1="135684" y1="-806.836" x2="135684" y2="250956" gradientUnits="userSpaceOnUse">
<stop stop-color="#53A5DF"/>
<stop offset="1" stop-color="#A9D2EF"/>
</linearGradient>
<linearGradient id="paint1_linear_34_110" x1="125253" y1="-732.176" x2="125253" y2="234916" gradientUnits="userSpaceOnUse">
<stop stop-color="#53A5DF"/>
<stop offset="1" stop-color="#A9D2EF"/>
</linearGradient>
<linearGradient id="paint2_linear_34_110" x1="117313" y1="-653.104" x2="117313" y2="219058" gradientUnits="userSpaceOnUse">
<stop stop-color="#53A5DF"/>
<stop offset="1" stop-color="#A9D2EF"/>
</linearGradient>
<linearGradient id="paint3_linear_34_110" x1="109408" y1="-567.516" x2="109408" y2="202583" gradientUnits="userSpaceOnUse">
<stop stop-color="#53A5DF"/>
<stop offset="1" stop-color="#A9D2EF"/>
</linearGradient>
<linearGradient id="paint4_linear_34_110" x1="101366" y1="-477.185" x2="101366" y2="185664" gradientUnits="userSpaceOnUse">
<stop stop-color="#53A5DF"/>
<stop offset="1" stop-color="#A9D2EF"/>
</linearGradient>
<linearGradient id="paint5_linear_34_110" x1="93015.9" y1="-391.925" x2="93015.9" y2="169273" gradientUnits="userSpaceOnUse">
<stop stop-color="#53A5DF"/>
<stop offset="1" stop-color="#A9D2EF"/>
</linearGradient>
<linearGradient id="paint6_linear_34_110" x1="81810.3" y1="-318.733" x2="81810.3" y2="154100" gradientUnits="userSpaceOnUse">
<stop stop-color="#53A5DF"/>
<stop offset="1" stop-color="#A9D2EF"/>
</linearGradient>
<linearGradient id="paint7_linear_34_110" x1="75220.9" y1="-238.675" x2="75220.9" y2="138273" gradientUnits="userSpaceOnUse">
<stop stop-color="#53A5DF"/>
<stop offset="1" stop-color="#A9D2EF"/>
</linearGradient>
<linearGradient id="paint8_linear_34_110" x1="65424.1" y1="-164.108" x2="65424.1" y2="122278" gradientUnits="userSpaceOnUse">
<stop stop-color="#53A5DF"/>
<stop offset="1" stop-color="#A9D2EF"/>
</linearGradient>
<linearGradient id="paint9_linear_34_110" x1="57966.8" y1="-68.2671" x2="57966.8" y2="104872" gradientUnits="userSpaceOnUse">
<stop stop-color="#53A5DF"/>
<stop offset="1" stop-color="#A9D2EF"/>
</linearGradient>
<linearGradient id="paint10_linear_34_110" x1="46945.1" y1="16.1313" x2="46945.1" y2="88698.3" gradientUnits="userSpaceOnUse">
<stop stop-color="#53A5DF"/>
<stop offset="1" stop-color="#A9D2EF"/>
</linearGradient>
<linearGradient id="paint11_linear_34_110" x1="39156.9" y1="88.7568" x2="39156.9" y2="73058.9" gradientUnits="userSpaceOnUse">
<stop stop-color="#53A5DF"/>
<stop offset="1" stop-color="#A9D2EF"/>
</linearGradient>
<linearGradient id="paint12_linear_34_110" x1="31361.2" y1="189.921" x2="31361.2" y2="55362.6" gradientUnits="userSpaceOnUse">
<stop stop-color="#53A5DF"/>
<stop offset="1" stop-color="#A9D2EF"/>
</linearGradient>
</defs>
</svg>
