<svg width="1727" height="750" viewBox="0 0 1727 750" fill="none" xmlns="http://www.w3.org/2000/svg">
    <path opacity="0.45" d="M0 748.514C288 396.543 576 290.36 864 429.964C1152 569.567 1440 675.751 1728 748.514" stroke="url(#paint0_linear_19_15)" stroke-linecap="round"/>
    <path opacity="0.29" d="M0 709.171C288 383.429 576 290.36 864 429.964C1152 569.567 1440 662.636 1728 709.171" stroke="url(#paint1_linear_19_15)" stroke-linecap="round"/>
    <path opacity="0.44" d="M0 669.828C288 370.315 576 290.36 864 429.964C1152 569.567 1440 649.522 1728 669.828" stroke="url(#paint2_linear_19_15)" stroke-linecap="round"/>
    <path opacity="0.47" d="M0 630.485C288 357.201 576 290.36 864 429.964C1152 569.567 1440 636.408 1728 630.485" stroke="url(#paint3_linear_19_15)" stroke-linecap="round"/>
    <path opacity="0.1" d="M0 591.142C288 344.086 576 290.36 864 429.964C1152 569.567 1440 623.293 1728 591.142" stroke="url(#paint4_linear_19_15)" stroke-linecap="round"/>
    <path opacity="0.15" d="M0 551.8C288 330.972 576 290.36 864 429.964C1152 569.567 1440 610.179 1728 551.8" stroke="url(#paint5_linear_19_15)" stroke-linecap="round"/>
    <path opacity="0.95" d="M0 512.457C288 317.858 576 290.36 864 429.964C1152 569.567 1440 597.065 1728 512.457" stroke="url(#paint6_linear_19_15)" stroke-linecap="round"/>
    <path opacity="0.27" d="M0 473.114C288 304.744 576 290.36 864 429.964C1152 569.567 1440 583.951 1728 473.114" stroke="url(#paint7_linear_19_15)" stroke-linecap="round"/>
    <path opacity="0.89" d="M0 433.771C288 291.629 576 290.36 864 429.964C1152 569.567 1440 570.836 1728 433.771" stroke="url(#paint8_linear_19_15)" stroke-linecap="round"/>
    <path opacity="0.28" d="M0 394.428C288 278.515 576 290.36 864 429.964C1152 569.567 1440 557.722 1728 394.428" stroke="url(#paint9_linear_19_15)" stroke-linecap="round"/>
    <path opacity="0.76" d="M0 355.086C288 265.401 576 290.36 864 429.964C1152 569.567 1440 544.608 1728 355.086" stroke="url(#paint10_linear_19_15)" stroke-linecap="round"/>
    <path opacity="0.97" d="M0 315.743C288 252.286 576 290.36 864 429.964C1152 569.567 1440 531.494 1728 315.743" stroke="url(#paint11_linear_19_15)" stroke-linecap="round"/>
    <path opacity="0.64" d="M0 276.4C288 239.172 576 290.36 864 429.964C1152 569.567 1440 518.379 1728 276.4" stroke="url(#paint12_linear_19_15)" stroke-linecap="round"/>
    <path opacity="0.23" d="M0 237.057C288 226.058 576 290.36 864 429.964C1152 569.567 1440 505.265 1728 237.057" stroke="url(#paint13_linear_19_15)" stroke-linecap="round"/>
    <path opacity="0.15" d="M0 197.714C288 212.944 576 290.36 864 429.964C1152 569.567 1440 492.151 1728 197.714" stroke="url(#paint14_linear_19_15)" stroke-linecap="round"/>
    <path opacity="0.28" d="M0 158.371C288 199.829 576 290.36 864 429.964C1152 569.567 1440 479.037 1728 158.371" stroke="url(#paint15_linear_19_15)" stroke-linecap="round"/>
    <path opacity="0.43" d="M0 119.028C288 186.715 576 290.36 864 429.964C1152 569.567 1440 465.922 1728 119.028" stroke="url(#paint16_linear_19_15)" stroke-linecap="round"/>
    <path opacity="0.39" d="M0 79.6857C288 173.601 576 290.36 864 429.964C1152 569.567 1440 452.808 1728 79.6857" stroke="url(#paint17_linear_19_15)" stroke-linecap="round"/>
    <path opacity="0.54" d="M0 40.3428C288 160.487 576 290.36 864 429.964C1152 569.567 1440 439.694 1728 40.3428" stroke="url(#paint18_linear_19_15)" stroke-linecap="round"/>
    <path opacity="0.57" d="M0 1C288 147.372 576 290.36 864 429.964C1152 569.567 1440 426.579 1728 1" stroke="url(#paint19_linear_19_15)" stroke-linecap="round"/>
    <defs>
        <linearGradient id="paint0_linear_19_15" x1="86400" y1="370.494" x2="86400" y2="38172.5" gradientUnits="userSpaceOnUse">
            <stop stop-color="#53A5DF"/>
            <stop offset="1" stop-color="#A9D2EF"/>
        </linearGradient>
        <linearGradient id="paint1_linear_19_15" x1="86400" y1="367.142" x2="86400" y2="34570" gradientUnits="userSpaceOnUse">
            <stop stop-color="#53A5DF"/>
            <stop offset="1" stop-color="#A9D2EF"/>
        </linearGradient>
        <linearGradient id="paint2_linear_19_15" x1="86400" y1="363.39" x2="86400" y2="31007.2" gradientUnits="userSpaceOnUse">
            <stop stop-color="#53A5DF"/>
            <stop offset="1" stop-color="#A9D2EF"/>
        </linearGradient>
        <linearGradient id="paint3_linear_19_15" x1="86400" y1="359.161" x2="86400" y2="27527.8" gradientUnits="userSpaceOnUse">
            <stop stop-color="#53A5DF"/>
            <stop offset="1" stop-color="#A9D2EF"/>
        </linearGradient>
        <linearGradient id="paint4_linear_19_15" x1="86400" y1="354.358" x2="86400" y2="24935.6" gradientUnits="userSpaceOnUse">
            <stop stop-color="#53A5DF"/>
            <stop offset="1" stop-color="#A9D2EF"/>
        </linearGradient>
        <linearGradient id="paint5_linear_19_15" x1="86400" y1="348.856" x2="86400" y2="23225.4" gradientUnits="userSpaceOnUse">
            <stop stop-color="#53A5DF"/>
            <stop offset="1" stop-color="#A9D2EF"/>
        </linearGradient>
        <linearGradient id="paint6_linear_19_15" x1="86400" y1="342.491" x2="86400" y2="22128.3" gradientUnits="userSpaceOnUse">
            <stop stop-color="#53A5DF"/>
            <stop offset="1" stop-color="#A9D2EF"/>
        </linearGradient>
        <linearGradient id="paint7_linear_19_15" x1="86400" y1="335.041" x2="86400" y2="21500.3" gradientUnits="userSpaceOnUse">
            <stop stop-color="#53A5DF"/>
            <stop offset="1" stop-color="#A9D2EF"/>
        </linearGradient>
        <linearGradient id="paint8_linear_19_15" x1="86400" y1="326.204" x2="86400" y2="21268.5" gradientUnits="userSpaceOnUse">
            <stop stop-color="#53A5DF"/>
            <stop offset="1" stop-color="#A9D2EF"/>
        </linearGradient>
        <linearGradient id="paint9_linear_19_15" x1="86400" y1="315.553" x2="86400" y2="21407.9" gradientUnits="userSpaceOnUse">
            <stop stop-color="#53A5DF"/>
            <stop offset="1" stop-color="#A9D2EF"/>
        </linearGradient>
        <linearGradient id="paint10_linear_19_15" x1="86400" y1="302.466" x2="86400" y2="21934.5" gradientUnits="userSpaceOnUse">
            <stop stop-color="#53A5DF"/>
            <stop offset="1" stop-color="#A9D2EF"/>
        </linearGradient>
        <linearGradient id="paint11_linear_19_15" x1="86400" y1="285.998" x2="86400" y2="22909.3" gradientUnits="userSpaceOnUse">
            <stop stop-color="#53A5DF"/>
            <stop offset="1" stop-color="#A9D2EF"/>
        </linearGradient>
        <linearGradient id="paint12_linear_19_15" x1="86400" y1="264.644" x2="86400" y2="24457.8" gradientUnits="userSpaceOnUse">
            <stop stop-color="#53A5DF"/>
            <stop offset="1" stop-color="#A9D2EF"/>
        </linearGradient>
        <linearGradient id="paint13_linear_19_15" x1="86400" y1="235.852" x2="86400" y2="26815.5" gradientUnits="userSpaceOnUse">
            <stop stop-color="#53A5DF"/>
            <stop offset="1" stop-color="#A9D2EF"/>
        </linearGradient>
        <linearGradient id="paint14_linear_19_15" x1="86400" y1="197.714" x2="86400" y2="30157.9" gradientUnits="userSpaceOnUse">
            <stop stop-color="#53A5DF"/>
            <stop offset="1" stop-color="#A9D2EF"/>
        </linearGradient>
        <linearGradient id="paint15_linear_19_15" x1="86400" y1="158.371" x2="86400" y2="33669.1" gradientUnits="userSpaceOnUse">
            <stop stop-color="#53A5DF"/>
            <stop offset="1" stop-color="#A9D2EF"/>
        </linearGradient>
        <linearGradient id="paint16_linear_19_15" x1="86400" y1="119.028" x2="86400" y2="37221.6" gradientUnits="userSpaceOnUse">
            <stop stop-color="#53A5DF"/>
            <stop offset="1" stop-color="#A9D2EF"/>
        </linearGradient>
        <linearGradient id="paint17_linear_19_15" x1="86400" y1="79.6857" x2="86400" y2="40809.1" gradientUnits="userSpaceOnUse">
            <stop stop-color="#53A5DF"/>
            <stop offset="1" stop-color="#A9D2EF"/>
        </linearGradient>
        <linearGradient id="paint18_linear_19_15" x1="86400" y1="40.3428" x2="86400" y2="44426.6" gradientUnits="userSpaceOnUse">
            <stop stop-color="#53A5DF"/>
            <stop offset="1" stop-color="#A9D2EF"/>
        </linearGradient>
        <linearGradient id="paint19_linear_19_15" x1="86400" y1="1" x2="86400" y2="48069.8" gradientUnits="userSpaceOnUse">
            <stop stop-color="#53A5DF"/>
            <stop offset="1" stop-color="#A9D2EF"/>
        </linearGradient>
    </defs>
</svg>
