<svg width="28" height="23" viewBox="0 0 28 23" fill="none" xmlns="http://www.w3.org/2000/svg">
<path d="M14.8938 9.04412C15.1837 8.65226 16.2771 7.30165 16.8862 6.39288C18.2914 4.29468 19.7627 2.22708 21.9312 0.445703C22.2687 0.167796 22.6686 -0.376897 24.8554 0.526298C27.1303 1.4684 28.198 2.37715 27.7137 2.90517C26.5396 4.18353 25.0389 5.33963 24.4739 6.85422C23.6447 9.07468 21.9275 10.9255 20.6396 12.957C20.0599 13.8685 19.4252 14.7579 18.7941 15.6472L17.8548 16.9839L17.3998 17.6592L16.7394 18.6541C16.4789 19.0431 16.2331 19.4489 15.9579 19.8352C15.6827 20.2215 15.3818 20.5827 15.0626 20.9079C14.4132 21.5582 13.6757 22.0584 12.7841 22.3975C11.9072 22.7476 10.8065 22.8866 9.78277 22.8116C8.75911 22.7282 7.83081 22.4531 6.97957 21.975C6.24574 21.5693 5.59267 20.9857 5.03495 20.3021C4.7561 19.9602 4.51025 19.5906 4.26811 19.2321L3.90853 18.6958L3.7324 18.429C3.71405 18.404 3.70673 18.3873 3.70306 18.379L3.68472 18.3428L3.64802 18.2706C3.24442 17.498 2.86284 16.7143 2.39686 15.9695C2.17672 15.6194 1.46124 15.4082 1.2044 15.033C0.991595 14.7217 0.602655 14.2187 0.547617 13.838C0.521932 13.674 0.518261 13.4934 0.338476 13.4072C-0.487073 13.0015 0.155032 12.4929 2.73441 11.5536C3.30312 11.3479 3.95991 10.9728 4.4369 10.9422C4.45523 10.9422 4.49558 10.9366 4.51758 10.9339C6.32646 10.6699 5.99626 11.4174 6.38518 11.8343C7.33549 12.8598 8.24541 13.9019 9.14799 14.9524L9.48557 15.347C9.59197 15.4693 9.74242 15.6499 9.73509 15.6333L9.90017 15.7972C10.0029 15.9028 10.1093 16.0029 10.2414 16.0668C10.3221 16.1057 10.4175 16.1418 10.5166 16.1418C10.6193 16.1446 10.7184 16.1085 10.7881 16.0501C10.9275 15.9306 10.9863 15.725 10.9275 15.5415C10.9129 15.4915 10.8358 15.4137 10.7807 15.3692L10.7477 15.3387C10.7477 15.3303 10.7331 15.3415 10.7441 15.3192C10.7587 15.2942 10.7697 15.2692 10.7881 15.247C10.8505 15.1525 10.9312 15.0635 11.0449 14.9913L11.0376 14.9968C11.2394 14.5744 11.3678 14.1242 11.654 13.7352C12.7254 12.2622 13.6317 10.6393 14.8388 9.29978C14.8792 9.24141 14.8314 9.12749 14.8938 9.04412Z" fill="black"/>
</svg>
