<svg width="399" height="6" viewBox="0 0 399 6" fill="none" xmlns="http://www.w3.org/2000/svg">
<g clip-path="url(#clip0_128_790)">
<path d="M398.32 2.19348C398.025 2.10757 397.659 2.03792 397.245 1.98912C397.098 1.97153 396.947 1.95628 396.792 1.94347C396.534 1.92175 396.419 1.91522 396.25 1.90435L395.504 1.86739C395.051 1.84782 394.616 1.83478 394.234 1.82391C393.416 1.8 392.634 1.78043 391.853 1.76522C388.735 1.70652 385.635 1.67826 382.596 1.66087C377.603 1.63768 372.614 1.6471 367.628 1.68913C367.665 1.55343 367.526 1.41829 367.229 1.30334C366.932 1.18839 366.492 1.09964 365.975 1.05C365.744 1.02495 365.503 1.00601 365.255 0.99348C364.818 0.973077 364.376 0.959998 363.932 0.954344C363.213 0.954344 362.564 0.943477 361.925 0.943477C359.366 0.943477 356.896 0.963042 354.418 0.978261C349.47 1.01304 344.548 1.0413 339.644 1.03913H334.145C332.209 1.03913 330.281 1.03913 328.38 1.03913H327.927H323.717C323.352 0.863044 323.077 0.730431 322.872 0.634779C345.206 0.134779 320.882 -0.0173916 239.847 0.0608693C221.308 0.0782606 201.649 0.0608679 182.717 0.0391288L101.878 0H79.8736L58.5531 0.0304313H55.9592C55.0708 0.0304313 54.2802 0.0304329 53.2941 0.0456503H53.0454H52.7611C52.6368 0.0847807 53.1253 -0.0565239 51.2776 0.215215C50.1938 0.476084 49.5009 0.867392 51.6241 1.35217C53.5607 1.54783 52.2637 1.41086 52.7434 1.45652H52.9211H53.0987H53.3297H54.0404H55.3373L57.2561 1.46739C57.0646 1.55262 56.924 1.64413 56.8386 1.73913C56.7659 1.83614 56.7659 1.9356 56.8386 2.03261H49.0922C48.0707 2.03261 47.0668 2.03261 45.9741 2.04782L45.0858 2.06088L44.4906 2.08043C44.307 2.08809 44.1259 2.09898 43.9487 2.11304C43.8244 2.06305 41.5057 2.68479 41.9411 2.82175C41.9411 2.8413 41.9411 2.85653 41.9411 2.87608H24.8848L17.698 2.84566L13.656 2.81522C11.4263 2.79782 9.21423 2.78044 6.86902 2.78261C6.27383 2.78261 5.70529 2.78261 5.09233 2.79782C4.77252 2.79782 4.48824 2.79782 4.1329 2.81522C3.77757 2.8326 3.67986 2.82609 3.42223 2.83696L3.01359 2.85651L2.68491 2.87391C2.54535 2.88115 2.40863 2.89133 2.27626 2.90434C1.86664 2.94148 1.48077 2.99271 1.1303 3.05652C0.688302 3.13703 0.351798 3.24732 0.161986 3.37391C-0.664179 3.95869 1.93868 4.33696 1.93868 4.25652C2.17051 4.27761 2.41227 4.2915 2.65826 4.29782L3.04024 4.30869C3.83087 4.31956 4.34612 4.30869 4.93243 4.30869C7.1888 4.30869 9.37418 4.29131 11.5772 4.29348H14.8819H15.5482C18.8972 4.32173 21.9976 4.34347 24.7515 4.33913H33.7238C34.3101 4.33913 34.932 4.33913 35.616 4.33913H39.5336L63.1104 4.38261L88.97 4.42608H90.5337H91.3331H88.5436H83.9955H28.8734L26.1639 4.43696H25.8175H25.5599C23.4456 4.39131 24.3073 4.99782 27.0257 4.98912H27.2744C28.1627 5.00216 28.9001 5.00435 29.6818 5.00652H34.2657L52.5923 5.04131L89.2365 5.06088L139.038 5.03914C138.7 6.05216 140.974 5.73042 140.433 5.8326C140.559 5.84446 140.69 5.8539 140.823 5.86087L141.116 5.87608C141.4 5.88695 141.56 5.88912 141.738 5.89348L142.698 5.90869C143.915 5.92608 145.07 5.93478 146.251 5.94348C150.888 5.97609 155.365 5.98913 159.718 6H172.395C188.768 6 203.017 5.97826 214.787 5.93261C225.936 5.89131 234.855 5.82826 241.242 5.74999H265.112C283.688 5.73261 302.227 5.80869 320.82 5.86957L348.715 5.95001C358.024 5.96739 367.308 5.98913 376.716 5.92609C377.897 5.92609 379.078 5.90434 380.269 5.88695C381.557 5.87252 382.842 5.84059 384.115 5.79131C384.337 5.78171 384.556 5.76937 384.773 5.75435C384.923 5.74571 385.071 5.73482 385.217 5.72174C385.479 5.6985 385.731 5.66938 385.972 5.63478C386.167 5.57174 387.233 5.54783 387.589 4.96521C387.357 4.43695 386.158 4.29782 386.025 4.28044C385.656 4.22257 385.251 4.17997 384.826 4.15435C384.433 4.1259 384.032 4.10411 383.627 4.08912C383.289 4.07608 382.961 4.06304 382.649 4.05434C381.379 4.01522 380.198 3.99348 379.007 3.97174C374.272 3.89347 369.618 3.85869 364.945 3.82391H363.106C363.053 3.66304 362.99 3.52609 362.92 3.41088H371.74H381.708C385.013 3.41088 388.362 3.42173 391.773 3.39565C392.554 3.39565 393.336 3.38044 394.154 3.36739L395.442 3.33695C395.682 3.33695 395.93 3.31955 396.241 3.30434L396.525 3.28696C396.662 3.27992 396.796 3.26974 396.925 3.25652C397.243 3.22918 397.543 3.19034 397.813 3.1413C398.196 3.26086 399.946 2.57391 398.32 2.19348Z" fill="#25262B"/>
</g>
<defs>
<clipPath id="clip0_128_790">
<rect width="399" height="6" fill="white"/>
</clipPath>
</defs>
</svg>
