<svg width="544" height="500" viewBox="0 0 544 500" fill="none" xmlns="http://www.w3.org/2000/svg">
<path d="M3.77783 500L343.778 0H491.111L151.111 500H3.77783Z" fill="url(#paint0_linear_63_433)"/>
<path d="M186.698 500L526.698 0H628.131L288.131 500H186.698Z" fill="url(#paint1_linear_63_433)"/>
<path d="M537.2 500L197.2 0H163.2L503.2 500H537.2Z" fill="url(#paint2_linear_63_433)"/>
<path d="M338.413 500L-1.58667 0H-171.587L168.413 500H338.413Z" fill="url(#paint3_linear_63_433)"/>
<path d="M278.295 500L544 109.258V500H278.295Z" fill="url(#paint4_linear_63_433)"/>
<path d="M0 500H265.705L0 109.258V500Z" fill="url(#paint5_linear_63_433)"/>
<defs>
<linearGradient id="paint0_linear_63_433" x1="3.77783" y1="50000" x2="49987.3" y2="1282.7" gradientUnits="userSpaceOnUse">
<stop stop-color="#033DB7" stop-opacity="0.2"/>
<stop offset="0.66" stop-color="#033DB7" stop-opacity="0"/>
</linearGradient>
<linearGradient id="paint1_linear_63_433" x1="186.698" y1="50000" x2="49801.2" y2="6197.03" gradientUnits="userSpaceOnUse">
<stop stop-color="#033DB7" stop-opacity="0.2"/>
<stop offset="0.66" stop-color="#033DB7" stop-opacity="0"/>
</linearGradient>
<linearGradient id="paint2_linear_63_433" x1="37563.2" y1="50000" x2="-10400.8" y2="14123" gradientUnits="userSpaceOnUse">
<stop stop-color="#033DB7" stop-opacity="0.2"/>
<stop offset="0.66" stop-color="#033DB7" stop-opacity="0"/>
</linearGradient>
<linearGradient id="paint3_linear_63_433" x1="50828.4" y1="50000" x2="838.215" y2="-990.002" gradientUnits="userSpaceOnUse">
<stop stop-color="#033DB7" stop-opacity="0.2"/>
<stop offset="0.66" stop-color="#033DB7" stop-opacity="0"/>
</linearGradient>
<linearGradient id="paint4_linear_63_433" x1="278.295" y1="39183.5" x2="36616.5" y2="14473.5" gradientUnits="userSpaceOnUse">
<stop stop-color="#033DB7" stop-opacity="0.2"/>
<stop offset="0.66" stop-color="#033DB7" stop-opacity="0"/>
</linearGradient>
<linearGradient id="paint5_linear_63_433" x1="26570.5" y1="39183.5" x2="-9767.7" y2="14473.5" gradientUnits="userSpaceOnUse">
<stop stop-color="#033DB7" stop-opacity="0.2"/>
<stop offset="0.66" stop-color="#033DB7" stop-opacity="0"/>
</linearGradient>
</defs>
</svg>
